<svg width="105" height="114" viewBox="0 0 105 114" fill="none" xmlns="http://www.w3.org/2000/svg">
<path d="M103.627 75.2678L97.9435 73.8039C97.476 72.1891 96.8332 70.6195 96.0588 69.1254L99.0684 63.9338C99.4921 63.1943 99.3899 62.2586 98.7909 61.655L93.1369 55.8144C92.5525 55.2107 91.6321 55.09 90.9308 55.5277L85.9051 58.6366C85.2477 58.2744 84.5902 57.9424 83.9036 57.6405C83.0708 57.2783 82.2234 56.9614 81.3761 56.6897L79.9589 50.819C79.7544 49.989 79.0385 49.4004 78.2058 49.4004H70.2143C69.3815 49.4004 68.6656 49.989 68.4611 50.819L67.044 56.6897C65.4807 57.1727 63.9613 57.8367 62.5149 58.6366L57.4892 55.5277C56.7733 55.09 55.8675 55.1957 55.2831 55.8144L49.6292 61.655C49.0448 62.2586 48.9279 63.2094 49.3516 63.9338L52.3612 69.1254C51.5869 70.6195 50.9587 72.174 50.4765 73.8039L44.7934 75.2678C43.9898 75.4791 43.42 76.2186 43.42 77.0788V85.334C43.42 86.1943 43.9898 86.9338 44.7934 87.1451L50.4765 88.609C50.944 90.2238 51.5869 91.7933 52.3612 93.2874L49.3516 98.479C48.9279 99.2185 49.0302 100.154 49.6292 100.758L55.2831 106.598C55.8675 107.202 56.7879 107.323 57.4892 106.885L62.5149 103.776C63.9613 104.576 65.4807 105.225 67.044 105.723L68.4611 111.594C68.6656 112.424 69.3815 113.012 70.2143 113.012H78.2058C79.0385 113.012 79.7544 112.424 79.9589 111.594L81.3761 105.723C82.9393 105.24 84.4587 104.576 85.9051 103.776L90.9308 106.885C91.6467 107.323 92.5525 107.217 93.1369 106.598L98.7909 100.758C99.3753 100.154 99.4921 99.2034 99.0684 98.479L96.0588 93.2874C96.8332 91.7933 97.4614 90.2238 97.9435 88.609L103.627 87.1451C104.43 86.9338 105 86.1943 105 85.334V77.0939C104.985 76.2186 104.43 75.4791 103.627 75.2678ZM101.377 83.8701L96.0442 85.2435C95.4014 85.4095 94.8901 85.9226 94.7294 86.6018C94.2326 88.6241 93.4583 90.5709 92.421 92.3668C92.085 92.9554 92.085 93.6949 92.421 94.2835L95.2553 99.1431L91.6175 102.916L86.9132 99.9882C86.3434 99.6411 85.6275 99.6411 85.0577 99.9882C83.3192 101.06 81.4345 101.86 79.4768 102.373C78.834 102.539 78.3227 103.067 78.1619 103.731L76.8179 109.224H71.6606L70.3311 103.716C70.1704 103.052 69.6737 102.524 69.0163 102.358C67.0586 101.845 65.1739 101.045 63.4354 99.9731C62.8656 99.626 62.1497 99.626 61.5799 99.9731L56.8756 102.901L53.2232 99.1431L56.0574 94.2835C56.3935 93.6949 56.3935 92.9554 56.0574 92.3668C55.0202 90.5709 54.2458 88.6241 53.7491 86.6018C53.5884 85.9377 53.0771 85.4095 52.4342 85.2435L47.1163 83.855V78.5276L52.4489 77.1543C53.0917 76.9883 53.603 76.4751 53.7637 75.796C54.2605 73.7737 55.0348 71.8269 56.0721 70.0309C56.4081 69.4423 56.4081 68.7028 56.0721 68.1143L53.2378 63.2547L56.8756 59.4817L61.5799 62.4096C62.1497 62.7567 62.8656 62.7567 63.4354 62.4096C65.1739 61.338 67.0586 60.5382 69.0163 60.025C69.6591 59.859 70.1704 59.3308 70.3311 58.6668L71.6752 53.1733H76.8325L78.1619 58.6819C78.3227 59.3459 78.8194 59.8741 79.4768 60.0401C81.4345 60.5533 83.3192 61.3531 85.0577 62.4246C85.6275 62.7718 86.3434 62.7718 86.9132 62.4246L91.6175 59.4968L95.2699 63.2698L92.4356 68.1294C92.0996 68.7179 92.0996 69.4574 92.4356 70.046C93.4729 71.8419 94.2472 73.7888 94.744 75.8111C94.9047 76.4751 95.416 77.0033 96.0588 77.1694L101.377 78.5578V83.8701Z" fill="#553D67"/>
<path d="M74.2173 66.2429C66.2112 66.2429 59.7391 72.9437 59.7391 81.1989C59.7391 89.454 66.2258 96.1548 74.2173 96.1548C82.2089 96.1548 88.6956 89.454 88.6956 81.1989C88.6956 72.9437 82.2235 66.258 74.2173 66.2429ZM74.2173 92.4271C68.2128 92.4271 63.3623 87.4016 63.3623 81.2139C63.3623 75.0263 68.2274 70.0008 74.2173 70.0008C80.2219 70.0008 85.0724 75.0263 85.0724 81.2139C85.087 87.4016 80.2219 92.412 74.2173 92.4271Z" fill="#553D67"/>
<path d="M83.2754 23.2314H86.8986V53.1584H83.2754V23.2314Z" fill="#553D67"/>
<path d="M7.24642 96.1699V103.655C7.24642 104.682 8.04995 105.527 9.05802 105.527H47.0725V101.784H10.855V96.1699H32.5797C32.8573 96.1699 33.1348 96.1096 33.3832 95.9888L40.6296 92.2461C41.2432 91.9291 41.6377 91.2802 41.6377 90.5709C41.6377 89.8616 41.2432 89.2126 40.6296 88.8957L33.3832 85.1529C33.1348 85.0171 32.8573 84.9567 32.5797 84.9416H10.855V21.3599H79.6522C83.6552 21.3599 86.8986 18.0095 86.8986 13.8744V10.1467C86.8986 9.12047 86.0951 8.27533 85.087 8.27533H79.6522V12.0181H83.2754V13.8895C83.2754 15.957 81.6537 17.6322 79.6522 17.6322C77.6507 17.6322 76.029 15.957 76.029 13.8895V8.27533C76.029 6.20775 77.6507 4.53256 79.6522 4.53256H86.8986C88.9001 4.53256 90.5218 6.20775 90.5218 8.27533V51.2869H94.145V8.27533C94.145 4.14017 90.9017 0.789795 86.8986 0.789795H7.24642C3.24336 0.789795 0 4.14017 0 8.27533V13.8895C0 18.0246 3.24336 21.375 7.24642 21.375V84.9567H5.43481C2.42521 84.9416 0 87.462 0 90.5558C0 93.6496 2.42521 96.1699 5.43481 96.1699H7.24642ZM3.62321 13.8744V8.27533C3.62321 6.20775 5.24489 4.53256 7.24642 4.53256H73.4284C72.771 5.66444 72.435 6.96234 72.4204 8.27533V13.8895C72.4204 15.2025 72.771 16.5004 73.4284 17.6322H7.24642C5.24489 17.6171 3.62321 15.942 3.62321 13.8744ZM35.7792 90.5558L32.156 92.4272H30.7681V88.6844H32.156L35.7792 90.5558ZM3.62321 90.5558C3.62321 89.5295 4.42674 88.6844 5.43481 88.6844H27.1595V92.4272H5.43481C4.42674 92.4272 3.62321 91.582 3.62321 90.5558Z" fill="#553D67"/>
<path d="M0 28.8455H3.62317V66.2429H0V28.8455Z" fill="#553D67"/>
<path d="M70.6088 30.7167V26.9739H47.0725C46.5904 26.9739 46.1375 27.1701 45.7869 27.5172L42.4851 30.928C34.5812 24.9365 23.6239 25.8119 16.6989 32.9805C15.9977 33.7049 15.9977 34.8972 16.6989 35.6216L29.497 48.842C29.8331 49.1891 30.3006 49.3853 30.7827 49.4004H48.8841C49.8776 49.4004 50.6957 48.5703 50.6957 47.529C50.6957 42.262 48.738 37.2062 45.2171 33.388L47.8322 30.6865H70.6088V30.7167ZM46.9702 45.6727H31.5278L20.6143 34.3991C26.1806 29.7961 33.9968 29.4792 39.8991 33.6294L34.9465 38.7456L37.5032 41.3866L42.675 36.0441C45.071 38.6852 46.5758 42.0658 46.9702 45.6727Z" fill="#553D67"/>
<path d="M74.2173 26.9741H77.8405V30.717H74.2173V26.9741Z" fill="#553D67"/>
<path d="M19.9131 55.0144H23.5363V58.7571H19.9131V55.0144Z" fill="#553D67"/>
<path d="M27.1594 55.0144H45.2609V58.7571H27.1594V55.0144Z" fill="#553D67"/>
<path d="M16.2898 62.5H45.2609V66.2427H16.2898V62.5Z" fill="#553D67"/>
<path d="M56.1158 34.4446H59.739V38.1873H56.1158V34.4446Z" fill="#553D67"/>
<path d="M63.3623 34.4446H77.8406V38.1873H63.3623V34.4446Z" fill="#553D67"/>
<path d="M56.1158 41.9299H77.8405V45.6726H56.1158V41.9299Z" fill="#553D67"/>
<path d="M16.2898 69.9858H39.826V73.7285H16.2898V69.9858Z" fill="#553D67"/>
</svg>
