 <svg width="13" height="28" viewBox="0 0 13 28" fill="none"
                                    xmlns="http://www.w3.org/2000/svg">
                                    <path fill-rule="evenodd" clip-rule="evenodd"
                                        d="M3.0909 13.871V26.8511C3.0909 27.0387 3.23753 27.1872 3.42274 27.1872H8.1843C8.36951 27.1872 8.51613 27.0387 8.51613 26.8511V13.66H11.9658C12.1355 13.66 12.2822 13.5271 12.2976 13.3474L12.6294 9.37752C12.6449 9.18215 12.4905 9.01023 12.2976 9.01023H8.51613V6.18913C8.51613 5.52488 9.04862 4.99348 9.69687 4.99348H12.3593C12.5446 4.99348 12.6912 4.84501 12.6912 4.65745V0.679781C12.6912 0.492229 12.5446 0.34375 12.3593 0.34375H7.86789C5.22858 0.34375 3.0909 2.50842 3.0909 5.18104V9.01023H0.713984C0.528769 9.01023 0.382141 9.15871 0.382141 9.34626V13.3161C0.382141 13.5037 0.528769 13.6521 0.713984 13.6521H3.0909V13.871Z"
                                        fill="#553D67" />
                                </svg>