<svg width="245" height="28" viewBox="0 0 245 28" fill="none" xmlns="http://www.w3.org/2000/svg">
<path d="M26.0844 11.7999C26.0844 8.62718 23.5454 6.04834 20.4044 6.04834H5.67991C2.53898 6.04834 0 8.61937 0 11.7999V18.7863C0 21.959 2.53898 24.5379 5.67991 24.5379H20.4044C23.5377 24.5379 26.0844 21.9668 26.0844 18.7863V11.7999ZM16.7928 15.6448L10.9199 18.9035C10.6653 19.0442 10.4337 18.8566 10.4337 18.5596V11.8625C10.4337 11.5655 10.673 11.378 10.9276 11.5264L16.8391 14.9571C17.1015 15.1134 17.0552 15.4963 16.7928 15.6448Z" fill="#553D67"/>
<path d="M72.9436 5.59528C72.1256 5.97038 71.2226 6.19701 70.3429 6.34549C70.7596 6.27516 71.377 5.5015 71.6239 5.19673C72.0021 4.72003 72.3185 4.18082 72.4883 3.59472C72.5114 3.54783 72.5269 3.49313 72.4805 3.45406C72.4265 3.43061 72.3879 3.44624 72.3416 3.46187C71.3538 3.99327 70.3352 4.384 69.247 4.65752C69.1544 4.68096 69.0927 4.65752 69.0309 4.60281C68.9383 4.50122 68.8534 4.39963 68.7608 4.32149C68.3055 3.93075 67.8116 3.61817 67.2637 3.39154C66.5383 3.09458 65.7434 2.96173 64.9639 3.01643C64.2076 3.06332 63.4591 3.28213 62.7877 3.64161C62.1085 4.00108 61.5066 4.49341 61.0281 5.09514C60.5342 5.7125 60.1638 6.44708 59.9786 7.22855C59.8011 7.97876 59.8088 8.72115 59.9246 9.47918C59.94 9.60421 59.9323 9.61984 59.8165 9.60421C55.572 8.96341 52.0452 7.42391 49.1898 4.12612C49.0664 3.98546 48.9969 3.98545 48.8966 4.13393C47.6464 6.0329 48.2561 9.08063 49.8149 10.581C50.0233 10.7842 50.2394 10.9796 50.4709 11.1593C50.386 11.175 49.3442 11.0656 48.4181 10.581C48.2946 10.5029 48.2329 10.5498 48.2175 10.6905C48.2098 10.8936 48.2252 11.0812 48.2483 11.3078C48.4876 13.2302 49.8072 15.012 51.6053 15.7075C51.8214 15.8013 52.0529 15.8794 52.2845 15.9185C51.8755 16.0122 51.451 16.0748 50.2703 15.981C50.1236 15.9497 50.0696 16.0279 50.1236 16.1685C51.0111 18.6145 52.9173 19.3413 54.3527 19.7477C54.5456 19.7789 54.7386 19.7789 54.9315 19.8258C54.9238 19.8414 54.9083 19.8414 54.9006 19.8571C54.4299 20.5917 52.7784 21.1309 52.0144 21.4044C50.6175 21.8967 49.105 22.1155 47.631 21.9748C47.3917 21.9436 47.3454 21.9436 47.2837 21.9748C47.2219 22.0139 47.276 22.0686 47.3531 22.1311C47.6541 22.3343 47.9551 22.5062 48.2638 22.6782C49.1976 23.1783 50.1777 23.5769 51.1963 23.866C56.4595 25.3352 62.3941 24.2567 66.3453 20.2791C69.4477 17.1532 70.5358 12.8473 70.5358 8.5336C70.5358 8.36168 70.7364 8.2679 70.8522 8.18194C71.6625 7.56458 72.3031 6.83 72.905 6.00946C73.0439 5.8219 73.0285 5.6578 73.0285 5.59528C73.0285 5.58746 73.0285 5.57184 73.0285 5.57184C73.0362 5.52495 73.0516 5.54839 72.9436 5.59528Z" fill="#553D67"/>
<path fill-rule="evenodd" clip-rule="evenodd" d="M55.7881 24.4442C55.7881 24.3973 56.2434 24.4442 55.7881 24.4442C55.7881 24.4207 55.8421 24.4442 55.7881 24.4442Z" fill="#553D67"/>
<path fill-rule="evenodd" clip-rule="evenodd" d="M64.9022 3.04785C64.8713 3.0713 64.8327 3.0713 64.7942 3.04785C64.8405 3.04785 64.8791 3.04785 64.9022 3.04785Z" fill="#553D67"/>
<path fill-rule="evenodd" clip-rule="evenodd" d="M97.0909 13.871V26.8511C97.0909 27.0387 97.2375 27.1872 97.4227 27.1872H102.184C102.37 27.1872 102.516 27.0387 102.516 26.8511V13.66H105.966C106.136 13.66 106.282 13.5271 106.298 13.3474L106.629 9.37752C106.645 9.18215 106.491 9.01023 106.298 9.01023H102.516V6.18913C102.516 5.52488 103.049 4.99348 103.697 4.99348H106.359C106.545 4.99348 106.691 4.84501 106.691 4.65745V0.679781C106.691 0.492229 106.545 0.34375 106.359 0.34375H101.868C99.2286 0.34375 97.0909 2.50842 97.0909 5.18104V9.01023H94.714C94.5288 9.01023 94.3821 9.15871 94.3821 9.34626V13.3161C94.3821 13.5037 94.5288 13.6521 94.714 13.6521H97.0909V13.871Z" fill="#553D67"/>
<path d="M149.252 5.15769C148.357 5.15769 147.624 5.89227 147.624 6.80659C147.624 7.71309 148.349 8.45548 149.252 8.45548C150.147 8.45548 150.88 7.7209 150.88 6.80659C150.873 5.89227 150.147 5.15769 149.252 5.15769ZM142.021 7.26765C138.255 7.26765 135.191 10.3701 135.191 14.1836C135.191 17.9972 138.255 21.0996 142.021 21.0996C145.787 21.0996 148.851 17.9972 148.851 14.1836C148.851 10.3701 145.787 7.26765 142.021 7.26765ZM142.021 18.6068C139.605 18.6068 137.645 16.6218 137.645 14.1758C137.645 11.7298 139.605 9.74491 142.021 9.74491C144.436 9.74491 146.396 11.7298 146.396 14.1758C146.396 16.6218 144.436 18.6068 142.021 18.6068ZM155.796 8.43204C155.796 3.77449 152.069 0 147.469 0H136.48C131.88 0 128.153 3.77449 128.153 8.43204V19.5601C128.153 24.2177 131.88 27.9922 136.48 27.9922H147.469C152.069 27.9922 155.796 24.2177 155.796 19.5601V8.43204ZM153.188 19.568C153.188 22.7642 150.626 25.3586 147.469 25.3586H136.48C133.323 25.3586 130.761 22.7642 130.761 19.568V8.43204C130.761 5.23584 133.323 2.64136 136.48 2.64136H147.469C150.626 2.64136 153.188 5.23584 153.188 8.43204V19.568Z" fill="#553D67"/>
<path d="M200.803 13.8243V22.1703C200.803 22.3735 200.641 22.5454 200.433 22.5454H196.181C195.98 22.5454 195.81 22.3813 195.81 22.1703V14.4104C195.81 12.3707 195.092 10.9719 193.279 10.9719C191.897 10.9719 191.079 11.9097 190.717 12.824C190.586 13.1522 190.555 13.5976 190.555 14.0587V22.1781C190.555 22.3813 190.393 22.5533 190.184 22.5533H185.932C185.731 22.5533 185.562 22.3891 185.562 22.1781C185.569 20.1151 185.616 10.081 185.569 7.7288C185.562 7.51781 185.731 7.3537 185.94 7.3537H190.184C190.385 7.3537 190.555 7.51781 190.555 7.7288V9.51055C190.547 9.52618 190.532 9.54181 190.524 9.55744H190.555V9.51055C191.218 8.47901 192.399 7.00204 195.054 7.00204C198.341 6.98641 200.803 9.15889 200.803 13.8243ZM178.184 22.5454H182.436C182.637 22.5454 182.807 22.3813 182.807 22.1703V7.71317C182.807 7.50999 182.644 7.33807 182.436 7.33807H178.184C177.983 7.33807 177.813 7.50218 177.813 7.71317V22.1703C177.813 22.3813 177.983 22.5454 178.184 22.5454Z" fill="#553D67"/>
<path d="M182.837 2.70392C182.837 4.19652 181.641 5.4078 180.167 5.4078C178.693 5.4078 177.497 4.19652 177.497 2.70392C177.497 1.21131 178.693 3.73621e-05 180.167 3.73621e-05C181.641 -0.00777732 182.837 1.21131 182.837 2.70392Z" fill="#553D67"/>
</svg>
