<svg width="28" height="28" viewBox="0 0 28 28" fill="none" xmlns="http://www.w3.org/2000/svg">
  <path d="M21.2519 5.15769C20.3567 5.15769 19.6235 5.89227 19.6235 6.80659C19.6235 7.71309 20.349 8.45548 21.2519 8.45548C22.1471 8.45548 22.8802 7.7209 22.8802 6.80659C22.8725 5.89227 22.1471 5.15769 21.2519 5.15769ZM14.0208 7.26765C10.2548 7.26765 7.19103 10.3701 7.19103 14.1836C7.19103 17.9972 10.2548 21.0996 14.0208 21.0996C17.7868 21.0996 20.8506 17.9972 20.8506 14.1836C20.8506 10.3701 17.7868 7.26765 14.0208 7.26765ZM14.0208 18.6068C11.6053 18.6068 9.64513 16.6218 9.64513 14.1758C9.64513 11.7298 11.6053 9.74491 14.0208 9.74491C16.4363 9.74491 18.3965 11.7298 18.3965 14.1758C18.3965 16.6218 16.4363 18.6068 14.0208 18.6068ZM27.7961 8.43204C27.7961 3.77449 24.0687 0 19.4692 0H8.47982C3.88034 0 0.152893 3.77449 0.152893 8.43204V19.5601C0.152893 24.2177 3.88034 27.9922 8.47982 27.9922H19.4692C24.0687 27.9922 27.7961 24.2177 27.7961 19.5601V8.43204ZM25.1877 19.568C25.1877 22.7642 22.6256 25.3586 19.4692 25.3586H8.47982C5.32346 25.3586 2.76133 22.7642 2.76133 19.568V8.43204C2.76133 5.23584 5.32346 2.64136 8.47982 2.64136H19.4692C22.6256 2.64136 25.1877 5.23584 25.1877 8.43204V19.568Z" fill="#553D67"/>
</svg>
