<svg width="75" height="76" viewBox="0 0 75 76" fill="none" xmlns="http://www.w3.org/2000/svg">
<path d="M37.5 0.0836182C16.7862 0.0836182 0 16.9032 0 37.6581C0 58.4131 16.7862 75.2327 37.5 75.2327C58.2138 75.2327 75 58.4131 75 37.6581C74.9803 16.913 58.2039 0.103394 37.5 0.0836182ZM37.5 72.731C18.1678 72.731 2.49671 57.0288 2.49671 37.6581C2.49671 18.2875 18.1678 2.58529 37.5 2.58529C56.8322 2.58529 72.5033 18.2875 72.5033 37.6581C72.4737 57.0189 56.8224 72.7013 37.5 72.731Z" fill="#553D67"/>
<path d="M37.5 6.34277C20.2401 6.34277 6.2467 20.364 6.2467 37.6581C6.2467 54.9523 20.2401 68.9735 37.5 68.9735C54.7599 68.9735 68.7533 54.9523 68.7533 37.6581C68.7336 20.3739 54.75 6.36255 37.5 6.34277ZM37.5 66.462C21.6217 66.462 8.75328 53.568 8.75328 37.6581C8.75328 21.7483 21.6217 8.85433 37.5 8.85433C53.3783 8.85433 66.2467 21.7483 66.2467 37.6581C66.2368 53.5581 53.3684 66.4521 37.5 66.462Z" fill="#553D67"/>
<path d="M38.7434 12.6118H36.2467V15.1134H38.7434V12.6118Z" fill="#553D67"/>
<path d="M38.7434 60.2028H36.2467V62.7045H38.7434V60.2028Z" fill="#553D67"/>
<path d="M26.0793 15.3393L23.9171 16.5905L25.1657 18.7569L27.3279 17.5058L26.0793 15.3393Z" fill="#553D67"/>
<path d="M49.8244 56.5554L47.6622 57.8065L48.9108 59.973L51.073 58.7219L49.8244 56.5554Z" fill="#553D67"/>
<path d="M16.471 24.0514L15.2227 26.2178L17.3848 27.4686L18.6332 25.3022L16.471 24.0514Z" fill="#553D67"/>
<path d="M57.6011 47.8531L56.3528 50.0197L58.5149 51.2706L59.7633 49.104L57.6011 47.8531Z" fill="#553D67"/>
<path d="M15 36.4023H12.5033V38.9041H15V36.4023Z" fill="#553D67"/>
<path d="M62.4967 36.4023H60V38.9041H62.4967V36.4023Z" fill="#553D67"/>
<path d="M17.3871 47.8514L15.2247 49.1019L16.4728 51.2685L18.6353 50.018L17.3871 47.8514Z" fill="#553D67"/>
<path d="M58.5158 24.0503L56.3536 25.3011L57.602 27.4676L59.7642 26.2167L58.5158 24.0503Z" fill="#553D67"/>
<path d="M25.1562 56.5525L23.9076 58.7189L26.0698 59.9699L27.3184 57.8035L25.1562 56.5525Z" fill="#553D67"/>
<path d="M48.9075 15.3426L47.6589 17.509L49.8211 18.7601L51.0697 16.5937L48.9075 15.3426Z" fill="#553D67"/>
<path d="M36.2467 17.6151V36.9461L24.3552 44.0951L25.6381 46.2408L38.1414 38.726C38.5164 38.4986 38.7434 38.0931 38.7434 37.6482V17.6151H36.2467Z" fill="#553D67"/>
</svg>
