<svg width="27" height="22" viewBox="0 0 27 22" fill="none"
                                    xmlns="http://www.w3.org/2000/svg">
                                    <path
                                        d="M25.9436 2.59528C25.1256 2.97038 24.2226 3.19701 23.3429 3.34549C23.7596 3.27516 24.377 2.5015 24.6239 2.19673C25.0021 1.72003 25.3185 1.18082 25.4883 0.594721C25.5114 0.547833 25.5269 0.49313 25.4805 0.454057C25.4265 0.430613 25.3879 0.446242 25.3416 0.461871C24.3538 0.99327 23.3352 1.384 22.247 1.65752C22.1544 1.68096 22.0927 1.65752 22.0309 1.60281C21.9383 1.50122 21.8534 1.39963 21.7608 1.32149C21.3055 0.930752 20.8116 0.618165 20.2637 0.391539C19.5383 0.0945815 18.7434 -0.0382683 17.9639 0.0164345C17.2076 0.0633226 16.4591 0.282134 15.7877 0.641609C15.1085 1.00108 14.5066 1.49341 14.0281 2.09514C13.5342 2.7125 13.1638 3.44708 12.9786 4.22855C12.8011 4.97876 12.8088 5.72115 12.9246 6.47918C12.94 6.60421 12.9323 6.61984 12.8165 6.60421C8.57202 5.96341 5.04523 4.42391 2.18984 1.12612C2.06637 0.985455 1.99691 0.985455 1.89659 1.13393C0.646391 3.0329 1.25606 6.08063 2.81494 7.58105C3.02331 7.78423 3.23939 7.97959 3.47091 8.15933C3.38602 8.17496 2.34419 8.06556 1.41812 7.58105C1.29464 7.5029 1.2329 7.54979 1.21747 7.69045C1.20975 7.89363 1.22519 8.08119 1.24834 8.30781C1.48757 10.2302 2.80723 12.012 4.60535 12.7075C4.82143 12.8013 5.05295 12.8794 5.28447 12.9185C4.87545 13.0122 4.451 13.0748 3.27026 12.981C3.12363 12.9497 3.06961 13.0279 3.12363 13.1685C4.01112 15.6145 5.91728 16.3413 7.35269 16.7477C7.54563 16.7789 7.73856 16.7789 7.93149 16.8258C7.92377 16.8414 7.90834 16.8414 7.90062 16.8571C7.42987 17.5917 5.77837 18.1309 5.01436 18.4044C3.61754 18.8967 2.10495 19.1155 0.630957 18.9748C0.391722 18.9436 0.345418 18.9436 0.283679 18.9748C0.221941 19.0139 0.275962 19.0686 0.353135 19.1311C0.654108 19.3343 0.955082 19.5062 1.26377 19.6782C2.19756 20.1783 3.17765 20.5769 4.19633 20.866C9.4595 22.3352 15.3941 21.2567 19.3453 17.2791C22.4477 14.1532 23.5358 9.8473 23.5358 5.5336C23.5358 5.36168 23.7364 5.2679 23.8522 5.18194C24.6625 4.56458 25.3031 3.83 25.905 3.00946C26.0439 2.8219 26.0285 2.6578 26.0285 2.59528C26.0285 2.58746 26.0285 2.57184 26.0285 2.57184C26.0362 2.52495 26.0516 2.54839 25.9436 2.59528Z"
                                        fill="#553D67" />
                                </svg>